<?xml version="1.0" encoding="UTF-8"?>
<!-- Generator: visioncortex VTracer 0.6.5 -->
<svg version="1.1" xmlns="http://www.w3.org/2000/svg" width="1280" height="1280">
<path d="M0 0 C422.4 0 844.8 0 1280 0 C1280 422.4 1280 844.8 1280 1280 C857.6 1280 435.2 1280 0 1280 C0 857.6 0 435.2 0 0 Z " fill="#0F0F0F" transform="translate(0,0)"/>
<path d="M0 0 C1.77 0.84 3.53 1.67 5.35 2.54 C16.49 7.91 26.88 13.87 37 21 C39.04 22.34 41.08 23.67 43.12 25 C53.43 31.89 62.89 39.61 72 48 C76.08 51.59 80.18 55.15 84.31 58.69 C88 62 88 62 91 66 C91 66.66 91 67.32 91 68 C91.66 68 92.32 68 93 68 C94.44 69.59 95.8 71.25 97.12 72.94 C99.99 76.54 102.86 79.93 106 83.31 C119 97.73 119 97.73 119 104 C119.66 104 120.32 104 121 104 C127.41 113.45 132.58 123.83 137.88 133.94 C138.42 134.98 138.97 136.02 139.53 137.09 C143.87 145.47 147.37 154.04 150.5 162.94 C151.99 167.16 153.51 171.36 155.06 175.56 C169.89 217.18 173.5 264.58 165.75 308.06 C165.53 309.33 165.3 310.59 165.07 311.89 C160.46 337.37 153.55 361.77 142 385 C140.73 387.79 139.46 390.58 138.19 393.38 C131.51 407.52 123.33 420.47 114 433 C113.26 434.02 112.52 435.03 111.76 436.08 C103.05 447.92 93.54 458.76 83 469 C80.24 471.74 77.51 474.51 74.81 477.31 C72 480 72 480 70 480 C70 480.66 70 481.32 70 482 C69.34 482 68.68 482 68 482 C68 482.66 68 483.32 68 484 C59.55 491 59.55 491 57 491 C57 491.66 57 492.32 57 493 C55.1 494.45 53.13 495.81 51.12 497.12 C50.03 497.85 48.94 498.57 47.82 499.32 C45 501 45 501 43 501 C43 501.66 43 502.32 43 503 C40.62 504.66 38.16 506.23 35.69 507.75 C34.33 508.59 32.97 509.43 31.57 510.3 C22.72 515.53 13.67 520.22 4.38 524.62 C3.4 525.09 2.43 525.55 1.43 526.03 C-21.24 536.82 -44.41 543.79 -69 548.62 C-69.52 548.73 -69.52 548.73 -72.16 549.25 C-75.44 549.88 -78.71 550.44 -82 551 C-83.05 551.18 -84.1 551.36 -85.18 551.54 C-98.59 553.5 -112.03 553.3 -125.55 553.29 C-128.32 553.3 -131.08 553.3 -133.85 553.31 C-141.33 553.33 -148.81 553.33 -156.28 553.33 C-160.97 553.34 -165.65 553.34 -170.34 553.35 C-186.72 553.36 -203.11 553.37 -219.49 553.37 C-234.7 553.37 -249.91 553.39 -265.11 553.42 C-278.22 553.45 -291.33 553.46 -304.44 553.46 C-312.24 553.46 -320.05 553.46 -327.85 553.48 C-335.21 553.5 -342.56 553.5 -349.91 553.49 C-352.59 553.49 -355.27 553.49 -357.94 553.5 C-377.84 553.59 -399.33 553.64 -418 546 C-418.74 545.8 -418.74 545.8 -422.5 544.81 C-430.08 542.31 -436.94 538.7 -444 535 C-445.02 534.48 -446.04 533.96 -447.09 533.43 C-453.88 529.87 -459.91 525.61 -466 521 C-467.44 519.95 -468.89 518.9 -470.38 517.81 C-473.53 515.37 -476.22 512.85 -479 510 C-479.4 509.69 -479.4 509.69 -481.41 508.13 C-485.61 504.67 -488.69 500.28 -492 496 C-492.82 494.97 -493.64 493.94 -494.49 492.88 C-510.69 472.38 -519.1 449.53 -524.2 424.04 C-528.15 404.31 -533.98 386.05 -543 368 C-543.99 367.67 -544.98 367.34 -546 367 C-546 366.34 -546 365.68 -546 365 C-548.56 364.35 -551.12 363.71 -553.69 363.06 C-555.11 362.7 -556.54 362.34 -558.01 361.97 C-564.06 360.5 -569.61 359.84 -575.81 359.62 C-591.7 358.84 -610.77 357.16 -623 346 C-630.93 336.72 -632.64 328.68 -632.41 316.73 C-630.46 294.06 -616.29 273.11 -601 257 C-599.68 256.34 -598.36 255.68 -597 255 C-597 254.34 -597 253.68 -597 253 C-594.68 251.14 -592.29 249.36 -589.88 247.62 C-588.55 246.67 -587.23 245.71 -585.87 244.73 C-575.67 237.54 -575.67 237.54 -570 237 C-570 236.34 -570 235.68 -570 235 C-568.02 234.34 -566.04 233.68 -564 233 C-564.83 227.16 -566.64 222.43 -569.3 217.24 C-570.02 215.82 -570.74 214.41 -571.48 212.95 C-572.31 211.32 -573.14 209.68 -574 208 C-576.02 203.97 -578.03 199.93 -580.04 195.89 C-581.12 193.71 -582.21 191.53 -583.3 189.36 C-584.97 186.01 -586.64 182.66 -588.31 179.31 C-589.94 176.02 -591.59 172.74 -593.23 169.45 C-593.72 168.46 -594.21 167.48 -594.71 166.46 C-597.14 161.61 -599.63 156.81 -602.23 152.06 C-604.66 147.62 -606.84 143.17 -608.94 138.56 C-611.81 132.37 -614.94 126.5 -618.46 120.66 C-620.63 116.91 -622.33 112.99 -624 109 C-624.33 108.34 -624.66 107.68 -625 107 C-626.29 106.97 -627.59 106.95 -628.92 106.92 C-647.83 106.3 -661.62 102.65 -675.74 89.41 C-683.23 81.41 -688.26 69.96 -689 59 C-689.07 58.01 -689.15 57.01 -689.23 55.99 C-689.89 40.44 -684.39 27.49 -674 16 C-661.52 5.07 -647.26 0.46 -630.88 0.61 C-617.68 1.67 -606.39 7.82 -597 17 C-585.04 31.58 -581.98 45.35 -583 64 C-584.21 69.77 -585.59 73.36 -588.75 78.31 C-591 82 -591 82 -590 87 C-589.08 89.03 -588.08 91.02 -587.04 92.99 C-586.43 94.16 -585.82 95.33 -585.19 96.53 C-584.86 97.16 -584.86 97.16 -583.19 100.31 C-581.81 102.94 -580.44 105.56 -579.07 108.19 C-578.38 109.5 -577.7 110.81 -576.99 112.17 C-574.12 117.69 -571.33 123.24 -568.56 128.81 C-568.07 129.8 -567.58 130.78 -567.08 131.8 C-564.98 136.01 -562.89 140.23 -560.8 144.45 C-556.73 152.63 -552.52 160.72 -548.22 168.78 C-545.4 174.14 -542.72 179.55 -540.03 184.97 C-537.19 190.6 -534.22 196.15 -531.25 201.71 C-527.73 208.42 -524.36 215.21 -521 222 C-518.6 222.05 -516.21 222.09 -513.81 222.12 C-512.48 222.15 -511.14 222.17 -509.77 222.2 C-506 222 -506 222 -501 220 C-500.01 219.67 -499.02 219.34 -498 219 C-491.82 203.56 -493.77 185.23 -493.75 168.81 C-493.75 167.77 -493.75 166.73 -493.74 165.66 C-493.73 146.09 -494.15 126.25 -498 107 C-498.04 104.33 -498.05 101.67 -498 99 C-499.65 98.67 -501.3 98.34 -503 98 C-518.28 90.73 -528.98 79.9 -535 64 C-539.43 49.06 -537.75 34.02 -530.69 20.25 C-522.5 5.79 -510.34 -2.3 -495 -8 C-479.72 -11.06 -465.04 -8.62 -451.6 -0.76 C-438.08 8.4 -429.3 20.93 -426 37 C-424.77 55.33 -427.84 67.75 -438 83 C-438.66 83 -439.32 83 -440 83 C-440.33 83.66 -440.33 83.66 -442 87 C-446.19 90.37 -450.38 93.23 -455 96 C-460.61 124.07 -455.76 158.18 -450 186 C-449.55 188.35 -449.1 190.7 -448.65 193.05 C-439.15 242.47 -421.2 289.96 -395 333 C-393.99 334.99 -392.98 336.99 -392 339 C-392.25 337.85 -392.51 336.7 -392.77 335.51 C-402.49 290.54 -407.99 237.34 -392.02 193.03 C-391.08 190.23 -390.36 187.35 -389.66 184.48 C-380.21 146.03 -360.27 110.22 -335 80 C-334.17 78.98 -333.34 77.97 -332.48 76.92 C-321.3 63.52 -309.07 50.4 -295 40 C-293.67 38.97 -292.34 37.95 -290.97 36.89 C-263.03 15.32 -232.21 -3.34 -198 -13 C-196.92 -13.33 -195.85 -13.67 -194.74 -14.01 C-183.35 -17.48 -171.69 -19.77 -160 -22 C-159.19 -22.16 -159.19 -22.16 -155.07 -22.98 C-103.39 -31.74 -47.15 -22.35 0 0 Z " fill="#CB643E" transform="translate(826,376)"/>
<path d="M0 0 C1.51 0.42 3.01 0.83 4.57 1.26 C16.97 4.78 28.54 9.06 40 15 C41.13 15.54 42.27 16.08 43.44 16.64 C58.82 24.03 75.87 32.87 88 45 C89.36 46.03 90.72 47.06 92.12 48.12 C97.94 52.56 102.91 57.77 108 63 C110.42 65.43 112.84 67.85 115.32 70.22 C121.96 76.63 127.52 83.59 133 91 C133.99 92.32 134.98 93.64 136 95 C136 95.66 136 96.32 136 97 C136.66 97 137.32 97 138 97 C140.08 100.3 142.05 103.62 144 107 C144.93 108.51 145.86 110.01 146.81 111.56 C159.62 133.13 168.84 155.7 175 180 C175.3 181.15 175.61 182.31 175.92 183.5 C178.11 192.61 179.01 201.9 180 211.2 C180.91 219.72 180.91 219.72 182 223 C182.46 238.11 182.25 253.03 180 268 C179.74 269.81 179.49 271.62 179.22 273.48 C175.75 296.79 169.54 319.06 161 341 C160.34 341 159.68 341 159 341 C158.89 341.38 158.89 341.38 158.31 343.31 C152.24 360.37 142.06 374.83 131 389 C130.27 389.95 129.55 390.91 128.8 391.89 C120.92 401.93 111.42 412.57 101 420 C100.34 420 99.68 420 99 420 C99 420.66 99 421.32 99 422 C61.72 451.73 14.66 464.54 -32.44 460.12 C-65.89 456.01 -98.25 439.68 -122 416 C-122.85 415.16 -123.7 414.32 -124.58 413.45 C-134 403.91 -134 403.91 -134 401 C-134.66 401 -135.32 401 -136 401 C-164.72 365.68 -179.47 321.42 -179.31 276.19 C-179.31 274.52 -179.3 272.86 -179.3 271.14 C-179.03 244.39 -173.96 219.05 -162 195 C-161.37 193.7 -160.74 192.39 -160.1 191.05 C-155.44 181.79 -149.68 173.91 -143 166 C-142.2 165.05 -141.41 164.1 -140.59 163.12 C-138.79 161.03 -136.9 159.01 -135 157 C-134.34 157 -133.68 157 -133 157 C-133 156.34 -133 155.68 -133 155 C-127.52 150 -127.52 150 -125 150 C-125 149.34 -125 148.68 -125 148 C-101.12 129.47 -70.45 120.85 -40.42 124.57 C-18.41 128.57 -1.34 137.14 16 151 C17.38 152.07 18.76 153.14 20.19 154.25 C41.12 174.84 51.94 204.32 52.31 233.31 C52.19 240.79 51.53 247.69 50 255 C49.73 256.65 49.46 258.3 49.19 260 C47.21 268.33 43.73 275.67 39.69 283.19 C37.07 288.35 36.2 292.14 37 298 C38.5 301.44 38.5 301.44 40 304 C40 304.66 40 305.32 40 306 C45.69 308.28 50.95 308.92 57 308 C68.01 302.67 72.64 286.72 76.44 275.88 C77.33 272.93 78.19 269.97 79 267 C79.34 265.76 79.68 264.53 80.03 263.25 C84.4 243.55 84.58 217.76 78.62 198.44 C78.17 196.97 77.72 195.49 77.25 193.98 C76.84 192.66 76.43 191.35 76 190 C75.53 188.45 75.05 186.91 74.56 185.31 C67.95 167.07 58.95 151.48 46 137 C45.34 136.14 44.67 135.29 43.99 134.41 C40.28 129.92 35.55 126.59 31 123 C30.14 122.28 29.28 121.55 28.39 120.8 C-0.59 97.4 -38.1 90.29 -74.38 93.75 C-82.22 94.74 -89.51 96.5 -97 99 C-98.13 99.36 -99.25 99.72 -100.41 100.09 C-118.74 106.23 -135.82 115.81 -150 129 C-151.28 130.07 -152.56 131.14 -153.88 132.25 C-183.01 158.74 -201.03 196.64 -207.12 235.25 C-207.29 236.29 -207.46 237.32 -207.64 238.39 C-208.1 241.26 -208.55 244.13 -209 247 C-209.09 247.54 -209.09 247.54 -209.54 250.29 C-210.5 258.04 -210.23 265.89 -210.25 273.69 C-210.27 275.44 -210.29 277.2 -210.31 279.01 C-210.35 291.28 -209.14 302.93 -207 315 C-206.71 316.7 -206.42 318.4 -206.12 320.14 C-203.76 333.59 -199.6 346.19 -195 359 C-194.5 360.38 -194.01 361.76 -193.5 363.19 C-188.31 376.86 -181.45 390.05 -173 402 C-172.01 403.65 -171.02 405.3 -170 407 C-164.76 414.41 -159.11 421.3 -153 428 C-151.93 429.28 -150.86 430.56 -149.75 431.88 C-126.37 457.59 -96.83 474.46 -64 485 C-64 485.33 -64 485.66 -64 486 C-94.4 486.3 -125.2 480.54 -153 468 C-154.51 467.44 -156.01 466.89 -157.56 466.31 C-165.98 462.73 -173.95 458.33 -182 454 C-183.07 453.44 -184.14 452.88 -185.25 452.3 C-198.39 445.34 -209.57 436.44 -221 427 C-222.89 425.5 -224.79 423.99 -226.69 422.5 C-246.93 406.07 -264.7 382.99 -277 360 C-277 359.01 -277 358.02 -277 357 C-277.66 357 -278.32 357 -279 357 C-303.54 306.02 -314.59 252.39 -305 196 C-304.76 194.47 -304.51 192.94 -304.26 191.37 C-300.54 171.07 -293.53 150.3 -284 132 C-283.22 130.42 -282.45 128.84 -281.65 127.21 C-274.16 112.47 -265.25 98.96 -255 86 C-254.63 85.53 -254.63 85.53 -252.77 83.13 C-237.9 64.39 -220.89 48.26 -201 35 C-200.34 35 -199.68 35 -199 35 C-199 34.34 -199 33.68 -199 33 C-194.34 30.32 -189.67 27.66 -185 25 C-183.56 24.17 -182.11 23.34 -180.62 22.49 C-126.08 -8.43 -60.47 -16.91 0 0 Z " fill="#110F0E" transform="translate(773,401)"/>
<path d="M0 0 C8.56 7.24 13.12 15.15 16.3 25.96 C16.65 26.85 17 27.74 17.36 28.66 C21.33 42.54 17.63 58.31 14.3 71.96 C13.94 73.51 13.58 75.06 13.2 76.66 C10.53 87.24 6.44 96.37 1.3 105.96 C0.5 107.71 -0.31 109.47 -1.14 111.27 C-4.35 117.15 -8.32 121.93 -12.7 126.96 C-13.87 128.34 -15.05 129.72 -16.26 131.15 C-19.96 135.25 -23.7 139.16 -27.7 142.96 C-28.36 142.96 -29.02 142.96 -29.7 142.96 C-30.03 143.95 -30.36 144.94 -30.7 145.96 C-34.79 149.31 -39.26 152.1 -43.7 154.96 C-44.29 155.34 -44.29 155.34 -47.28 157.27 C-69.15 170.47 -93.84 175.48 -119.16 175.3 C-120.81 175.3 -122.45 175.3 -124.14 175.3 C-129.49 175.3 -134.85 175.28 -140.21 175.25 C-143.95 175.25 -147.69 175.24 -151.43 175.24 C-161.22 175.23 -171.02 175.2 -180.81 175.17 C-190.83 175.13 -200.84 175.12 -210.86 175.11 C-230.47 175.08 -250.09 175.02 -269.7 174.96 C-266.42 171.68 -263.62 170.33 -259.45 168.34 C-246.93 162.19 -235.15 154.91 -223.7 146.96 C-222.28 145.98 -220.87 145 -219.41 143.99 C-209.83 137.23 -201.15 130.07 -192.7 121.96 C-191.38 120.83 -190.06 119.69 -188.7 118.52 C-179.89 110.68 -171.72 102.37 -164.41 93.11 C-162.7 90.96 -162.7 90.96 -160.7 88.96 C-155.4 90.28 -151.3 93.13 -146.7 95.96 C-141.71 98.97 -136.7 101.97 -131.7 104.96 C-130.31 105.79 -128.92 106.62 -127.48 107.48 C-118.35 112.9 -109.14 118.09 -99.7 122.96 C-98.41 123.63 -97.12 124.3 -95.79 124.98 C-86.19 129.62 -75.51 134.59 -64.7 132.96 C-59.19 130.91 -55.74 129.28 -52.07 124.65 C-49.18 114.79 -49.23 104.75 -54.1 95.58 C-56.43 91.76 -58.85 88.03 -61.38 84.34 C-64.13 80.34 -66.79 76.28 -69.45 72.21 C-70.35 70.83 -71.25 69.46 -72.18 68.04 C-80.67 54.29 -83.42 40.03 -79.64 24.02 C-74.29 10.06 -66.44 -0.55 -52.7 -7.04 C-34.09 -13.99 -15.93 -12.03 0 0 Z " fill="#D36538" transform="translate(1109.69921875,754.0390625)"/>
<path d="M0 0 C11.1 7 18.32 14.91 21.56 27.88 C22.55 41.83 21.06 51.94 13.44 63.69 C4.7 73.13 -4.75 79.25 -17.81 80.31 C-30.03 79.36 -41.26 76.56 -50.44 67.88 C-59.81 56.71 -64.48 45.57 -63.44 30.88 C-60.3 18.01 -54.5 9.49 -44 1.5 C-28.97 -7.15 -15.59 -7.47 0 0 Z " fill="#D36738" transform="translate(735.4375,606.125)"/>
<path d="M0 0 C8.41 5.23 13.86 10.07 16.62 19.88 C17.7 28.37 17.14 35.43 12.62 42.88 C6.46 50.2 0.61 54.27 -9.07 55.25 C-18.72 55.56 -24.35 53.9 -32.12 48.06 C-37.49 42.8 -40.2 37.71 -40.54 30.16 C-40.55 28.77 -40.56 27.37 -40.56 25.94 C-40.58 24.55 -40.59 23.16 -40.61 21.72 C-40.38 17.88 -40.38 17.88 -38.38 12.88 C-37.72 12.88 -37.06 12.88 -36.38 12.88 C-35.72 11.23 -35.06 9.57 -34.38 7.88 C-24.37 -2.13 -13.28 -5.25 0 0 Z " fill="#190D0B" transform="translate(202.375,400.125)"/>
<path d="M0 0 C7.8 4.89 13.71 10.84 16 20 C16.86 30.57 15.27 37.55 8.88 46.25 C2.57 52.35 -3.24 55.26 -12 55.62 C-19.94 55.32 -25.85 52.74 -31.88 47.5 C-32.58 46.68 -33.28 45.85 -34 45 C-34.7 44.2 -35.4 43.39 -36.12 42.56 C-41.49 35.24 -41.9 28.87 -41 20 C-37.83 10.62 -32.48 4.07 -23.88 -0.75 C-16.06 -3.27 -7.71 -2.61 0 0 Z " fill="#180D0C" transform="translate(357,392)"/>
<path d="M0 0 C5 3 5 3 7 8 C7 14.62 6.39 15.5 2 20 C-1.23 21.62 -4.45 21.11 -8 21 C-8.66 20.67 -9.32 20.34 -10 20 C-10 19.34 -10 18.68 -10 18 C-10.66 18 -11.32 18 -12 18 C-14.27 13.45 -14.46 11.02 -14 6 C-10.09 -0.13 -7.12 -0.42 0 0 Z " fill="#BC6946" transform="translate(360,398)"/>
<path d="M0 0 C4.14 0.27 6.38 0.94 9.81 3.25 C11.71 8 12.43 10.28 11.81 15.25 C9.11 19.13 7.41 20.1 2.81 21.25 C-1.19 21.25 -1.19 21.25 -6.19 18.25 C-9.69 13.59 -9.89 11.93 -9.19 6.25 C-6.75 3.31 -6.75 3.31 -4.19 1.25 C-3.19 0.25 -3.19 0.25 0 0 Z " fill="#BF6745" transform="translate(201.1875,405.75)"/>
</svg>
